External Loads File
version=1
nRows=70
nColumns=13
Range=5.000000e-03-10 seconds
endheader
time 	forceRightX 	forceRightY 	forceRightZ 	pointRightX 	pointRightY 	pointRightZ 	forceLeftX 	forceLeftY 	forceLeftZ 	pointLeftX 	pointLeftY 	pointLeftZ 		
2.505000 87.500296 -50.624852 -0.000000 0.288228 0.439741 -0.100509 43.809692 -174.305021 -0.000000 0.071209 0.198195 -0.341112
2.510000 85.684234 -53.551409 -0.000000 0.291368 0.435201 -0.100582 36.766654 -175.966788 -0.000000 0.068197 0.202525 -0.340887
2.515000 83.720064 -56.494213 -0.000000 0.294655 0.430646 -0.100784 30.227368 -176.691128 -0.000000 0.065301 0.206930 -0.340735
2.520000 81.624416 -59.418232 -0.000000 0.297725 0.425827 -0.100828 24.335872 -176.542817 -0.000000 0.062408 0.211380 -0.340503
2.525000 79.425622 -62.277472 -0.000000 0.300528 0.420832 -0.100781 19.169836 -175.424295 -0.000000 0.059691 0.216004 -0.340313
2.530000 77.104691 -65.088137 -0.000000 0.303545 0.415782 -0.100876 14.671322 -173.191605 -0.000000 0.057209 0.220650 -0.340344
2.535000 74.653362 -67.846390 -0.000000 0.306299 0.410520 -0.100929 10.855360 -169.760403 -0.000000 0.054782 0.225420 -0.340224
2.540000 72.126372 -70.485688 -0.000000 0.308784 0.405273 -0.100846 7.901335 -165.171624 -0.000000 0.052504 0.230276 -0.340056
2.545000 69.438361 -73.093256 -0.000000 0.311215 0.399848 -0.100804 5.648918 -159.600294 -0.000000 0.050305 0.235248 -0.340012
2.550000 66.573302 -75.673759 -0.000000 0.313594 0.394140 -0.100803 4.116950 -153.276365 -0.000000 0.048323 0.240345 -0.339882
2.555000 63.628791 -78.141193 -0.000000 0.315889 0.388712 -0.100794 3.500598 -146.448953 -0.000000 0.046313 0.245561 -0.339706
2.560000 60.531927 -80.563753 -0.000000 0.318026 0.383013 -0.100852 3.600727 -139.356689 -0.000000 0.044554 0.250890 -0.339666
2.565000 57.291400 -82.926247 -0.000000 0.320096 0.377244 -0.100860 4.375173 -132.189181 -0.000000 0.042901 0.256329 -0.339612
2.570000 53.939601 -85.192688 -0.000000 0.322008 0.371359 -0.100976 5.801272 -125.087727 -0.000000 0.041401 0.261740 -0.339547
2.575000 50.445575 -87.369640 -0.000000 0.323764 0.365481 -0.100950 7.744069 -118.151819 -0.000000 0.040090 0.267358 -0.339559
2.580000 46.889727 -89.400242 -0.000000 0.325352 0.359602 -0.100796 10.218063 -111.437468 -0.000000 0.038944 0.272873 -0.339619
2.585000 43.197208 -91.318090 -0.000000 0.326795 0.353712 -0.101029 13.024798 -105.012318 -0.000000 0.037990 0.278526 -0.339801
2.590000 39.305004 -93.132074 -0.000000 0.328103 0.347551 -0.100982 16.003407 -98.966074 -0.000000 0.037267 0.284272 -0.339932
2.595000 35.326368 -94.770864 -0.000000 0.329280 0.341464 -0.100883 19.186690 -93.362708 -0.000000 0.036624 0.290072 -0.339988
2.600000 31.225136 -96.242817 -0.000000 0.330301 0.335379 -0.101132 22.439704 -88.271485 -0.000000 0.036140 0.296013 -0.339961
2.605000 26.964865 -97.560091 -0.000000 0.331108 0.329082 -0.101528 25.647889 -83.734086 -0.000000 0.035938 0.302026 -0.339989
2.610000 22.694732 -98.683421 -0.000000 0.331706 0.322962 -0.101466 28.878824 -79.701857 -0.000000 0.035822 0.308060 -0.339959
2.615000 18.296466 -99.641512 -0.000000 0.332223 0.316735 -0.101137 31.991559 -76.162423 -0.000000 0.035982 0.314215 -0.339992
2.620000 13.830430 -100.413043 -0.000000 0.332278 0.310478 -0.101575 35.005212 -73.031006 -0.000000 0.036306 0.320428 -0.339957
2.625000 9.388427 -100.983414 -0.000000 0.332244 0.304272 -0.101463 37.957063 -70.199403 -0.000000 0.036831 0.326545 -0.340030
2.630000 4.862543 -101.361827 -0.000000 0.332201 0.297914 -0.100956 40.745607 -67.657600 -0.000000 0.037504 0.332713 -0.339820
2.635000 0.406667 -101.538166 -0.000000 0.331475 0.291790 -0.101815 43.452503 -65.340002 -0.000000 0.038415 0.338814 -0.339861
2.640000 -4.110142 -101.518120 -0.000000 0.330882 0.285552 -0.101887 45.965586 -63.335952 -0.000000 0.039577 0.344967 -0.339886
2.645000 -8.646643 -101.293760 -0.000000 0.330076 0.279273 -0.101449 48.265025 -61.688488 -0.000000 0.040994 0.351080 -0.340023
2.650000 -13.074887 -100.871633 -0.000000 0.328927 0.273253 -0.100989 50.344069 -60.393462 -0.000000 0.042575 0.357085 -0.339989
2.655000 -17.588619 -100.224860 -0.000000 0.327675 0.267019 -0.101147 51.984093 -59.589473 -0.000000 0.044423 0.363154 -0.340032
2.660000 -21.968822 -99.381901 -0.000000 0.326322 0.260980 -0.101567 53.229798 -59.183936 -0.000000 0.046505 0.369126 -0.340093
2.665000 -26.278611 -98.333779 -0.000000 0.324667 0.255007 -0.102017 53.987447 -59.194699 -0.000000 0.048815 0.375039 -0.340152
2.670000 -30.546951 -97.070415 -0.000000 0.322775 0.249005 -0.102015 54.203824 -59.599983 -0.000000 0.051436 0.380908 -0.340224
2.675000 -34.666227 -95.630113 -0.000000 0.320693 0.243144 -0.102039 53.918273 -60.299154 -0.000000 0.054214 0.386658 -0.340205
2.680000 -38.702699 -94.007430 -0.000000 0.318311 0.237371 -0.102042 53.065642 -61.314160 -0.000000 0.057222 0.392318 -0.340260
2.685000 -42.608281 -92.237207 -0.000000 0.316056 0.231596 -0.102290 51.647315 -62.628502 -0.000000 0.060466 0.397867 -0.340227
2.690000 -46.503736 -90.268363 -0.000000 0.313260 0.225928 -0.102246 49.544548 -64.316242 -0.000000 0.063997 0.403350 -0.340395
2.695000 -50.294120 -88.139528 -0.000000 0.310230 0.220442 -0.102193 46.787924 -66.288112 -0.000000 0.067667 0.408814 -0.340365
2.700000 -53.976631 -85.854457 -0.000000 0.307021 0.215005 -0.102120 43.377846 -68.436459 -0.000000 0.071592 0.414054 -0.340419
2.705000 -57.552648 -83.421114 -0.000000 0.303540 0.209702 -0.102038 39.368408 -70.599436 -0.000000 0.075702 0.419124 -0.340510
2.710000 -61.012127 -80.857928 -0.000000 0.299924 0.204587 -0.102064 34.884995 -72.603633 -0.000000 0.079969 0.424176 -0.340494
2.715000 -64.384508 -78.148800 -0.000000 0.296035 0.199480 -0.101940 30.054279 -74.326733 -0.000000 0.084415 0.429002 -0.340490
2.720000 -67.679808 -75.279937 -0.000000 0.291955 0.194577 -0.101344 25.022383 -75.676081 -0.000000 0.089060 0.433961 -0.340510
2.725000 -70.761513 -72.371746 -0.000000 0.287700 0.189971 -0.101169 20.073476 -76.550876 -0.000000 0.093838 0.438477 -0.340489
2.730000 -73.849779 -69.205844 -0.000000 0.283230 0.185331 -0.100927 15.100389 -76.995473 -0.000000 0.099326 0.442839 -0.341318
2.735000 -76.726137 -65.996108 -0.000000 0.278319 0.180852 -0.100560 10.442078 -76.960651 -0.000000 0.104375 0.447129 -0.341351
2.740000 -79.360998 -62.809085 -0.000000 0.273560 0.176798 -0.100536 6.234221 -76.471099 -0.000000 0.109530 0.451322 -0.341315
2.745000 -81.828451 -59.581990 -0.000000 0.268667 0.172928 -0.100506 2.446856 -75.543392 -0.000000 0.114793 0.455238 -0.341322
2.750000 -84.035377 -56.461808 -0.000000 0.263641 0.169227 -0.100541 -0.791074 -74.147952 -0.000000 0.119553 0.458950 -0.340656
2.755000 -86.195906 -53.147169 -0.000000 0.258454 0.165764 -0.100598 -3.780053 -72.221795 -0.000000 0.125003 0.462396 -0.340736
2.760000 -88.191777 -49.809958 -0.000000 0.253147 0.162612 -0.100703 -6.398505 -69.672052 -0.000000 0.130473 0.465650 -0.340793
2.765000 -90.034492 -46.435043 -0.000000 0.247902 0.159586 -0.100690 -8.681439 -66.386228 -0.000000 0.136100 0.468781 -0.340730
2.770000 -91.732042 -43.007630 -0.000000 0.242467 0.156929 -0.100750 -10.647210 -62.209038 -0.000000 0.141804 0.471698 -0.340732
2.775000 -93.232366 -39.649997 -0.000000 0.237070 0.154399 -0.100778 -12.226497 -56.950414 -0.000000 0.147323 0.474396 -0.340705
2.780000 -94.593049 -36.248063 -0.000000 0.231552 0.152225 -0.100699 -13.515357 -50.366300 -0.000000 0.153006 0.476921 -0.340779
2.785000 -95.810091 -32.811995 -0.000000 0.225946 0.150268 -0.100689 -14.501991 -42.249586 -0.000000 0.158881 0.479159 -0.340894
2.790000 -96.841448 -29.505466 -0.000000 0.220473 0.148552 -0.100674 -15.086784 -32.500836 -0.000000 0.164588 0.481285 -0.340793
2.795000 -97.754666 -26.207920 -0.000000 0.214896 0.147164 -0.100670 -15.279049 -21.111103 -0.000000 0.170326 0.483027 -0.340988
2.800000 -98.564310 -22.953737 -0.000000 0.209446 0.146012 -0.100632 -15.028663 -8.243943 -0.000000 0.176177 0.484495 -0.340944
2.805000 -99.293647 -19.694214 -0.000000 0.203883 0.144960 -0.100513 -14.335202 5.826642 -0.000000 0.181989 0.485668 -0.341129
2.810000 -99.919116 -16.532000 -0.000000 0.198368 0.144402 -0.100410 -13.237022 20.730108 -0.000000 0.187561 0.486686 -0.341146
2.815000 -100.438847 -13.463454 -0.000000 0.193019 0.143915 -0.100176 -11.817948 36.103867 -0.000000 0.193000 0.487561 -0.340929
2.820000 -100.860338 -10.410567 -0.000000 0.187528 0.143680 -0.100081 -10.129090 51.672137 -0.000000 0.198227 0.488137 -0.341269
2.825000 -101.185243 -7.367512 -0.000000 0.182249 0.143690 -0.099877 -8.212661 67.293547 -0.000000 0.203616 0.488497 -0.341617
2.830000 -101.422928 -4.338916 -0.000000 0.176897 0.143991 -0.099672 -6.092776 82.965481 -0.000000 0.208850 0.488604 -0.341655
2.835000 -101.579687 -1.356556 -0.000000 0.171575 0.144527 -0.099675 -3.787840 98.772176 -0.000000 0.213897 0.488396 -0.341582
2.840000 -101.654300 1.611928 -0.000000 0.166226 0.145408 -0.099508 -1.232473 114.845724 -0.000000 0.218869 0.488595 -0.341726
2.845000 -101.633389 4.675851 -0.000000 0.160733 0.146560 -0.099433 1.755454 131.354875 -0.000000 0.223790 0.487831 -0.342102
2.850000 -101.509435 7.699907 -0.000000 0.155108 0.147973 -0.099360 5.039774 148.522124 -0.000000 0.228314 0.486773 -0.342214
